<?xml version="1.0" encoding="UTF-8"?>
<!DOCTYPE svg PUBLIC "-//W3C//DTD SVG 1.1//EN" "http://www.w3.org/Graphics/SVG/1.1/DTD/svg11.dtd">
<svg version="1.2" width="210mm" height="210mm" viewBox="0 0 21000 21000" preserveAspectRatio="xMidYMid" fill-rule="evenodd" stroke-width="28.222" stroke-linejoin="round" xmlns="http://www.w3.org/2000/svg" xmlns:ooo="http://xml.openoffice.org/svg/export" xmlns:xlink="http://www.w3.org/1999/xlink" xmlns:presentation="http://sun.com/xmlns/staroffice/presentation" xmlns:smil="http://www.w3.org/2001/SMIL20/" xmlns:anim="urn:oasis:names:tc:opendocument:xmlns:animation:1.0" xmlns:svg="urn:oasis:names:tc:opendocument:xmlns:svg-compatible:1.0" xml:space="preserve">
 <defs class="ClipPathGroup">
  <clipPath id="presentation_clip_path" clipPathUnits="userSpaceOnUse">
   <rect x="0" y="0" width="21000" height="21000"/>
  </clipPath>
  <clipPath id="presentation_clip_path_shrink" clipPathUnits="userSpaceOnUse">
   <rect x="21" y="21" width="20958" height="20958"/>
  </clipPath>
 </defs>
 <defs class="TextShapeIndex">
  <g ooo:slide="id1" ooo:id-list="id3 id4 id5 id6 id7 id8 id9"/>
 </defs>
 <defs class="EmbeddedBulletChars">
  <g id="bullet-char-template-57356" transform="scale(0.00048828125,-0.00048828125)">
   <path d="M 580,1141 L 1163,571 580,0 -4,571 580,1141 Z"/>
  </g>
  <g id="bullet-char-template-57354" transform="scale(0.00048828125,-0.00048828125)">
   <path d="M 8,1128 L 1137,1128 1137,0 8,0 8,1128 Z"/>
  </g>
  <g id="bullet-char-template-10146" transform="scale(0.00048828125,-0.00048828125)">
   <path d="M 174,0 L 602,739 174,1481 1456,739 174,0 Z M 1358,739 L 309,1346 659,739 1358,739 Z"/>
  </g>
  <g id="bullet-char-template-10132" transform="scale(0.00048828125,-0.00048828125)">
   <path d="M 2015,739 L 1276,0 717,0 1260,543 174,543 174,936 1260,936 717,1481 1274,1481 2015,739 Z"/>
  </g>
  <g id="bullet-char-template-10007" transform="scale(0.00048828125,-0.00048828125)">
   <path d="M 0,-2 C -7,14 -16,27 -25,37 L 356,567 C 262,823 215,952 215,954 215,979 228,992 255,992 264,992 276,990 289,987 310,991 331,999 354,1012 L 381,999 492,748 772,1049 836,1024 860,1049 C 881,1039 901,1025 922,1006 886,937 835,863 770,784 769,783 710,716 594,584 L 774,223 C 774,196 753,168 711,139 L 727,119 C 717,90 699,76 672,76 641,76 570,178 457,381 L 164,-76 C 142,-110 111,-127 72,-127 30,-127 9,-110 8,-76 1,-67 -2,-52 -2,-32 -2,-23 -1,-13 0,-2 Z"/>
  </g>
  <g id="bullet-char-template-10004" transform="scale(0.00048828125,-0.00048828125)">
   <path d="M 285,-33 C 182,-33 111,30 74,156 52,228 41,333 41,471 41,549 55,616 82,672 116,743 169,778 240,778 293,778 328,747 346,684 L 369,508 C 377,444 397,411 428,410 L 1163,1116 C 1174,1127 1196,1133 1229,1133 1271,1133 1292,1118 1292,1087 L 1292,965 C 1292,929 1282,901 1262,881 L 442,47 C 390,-6 338,-33 285,-33 Z"/>
  </g>
  <g id="bullet-char-template-9679" transform="scale(0.00048828125,-0.00048828125)">
   <path d="M 813,0 C 632,0 489,54 383,161 276,268 223,411 223,592 223,773 276,916 383,1023 489,1130 632,1184 813,1184 992,1184 1136,1130 1245,1023 1353,916 1407,772 1407,592 1407,412 1353,268 1245,161 1136,54 992,0 813,0 Z"/>
  </g>
  <g id="bullet-char-template-8226" transform="scale(0.00048828125,-0.00048828125)">
   <path d="M 346,457 C 273,457 209,483 155,535 101,586 74,649 74,723 74,796 101,859 155,911 209,963 273,989 346,989 419,989 480,963 531,910 582,859 608,796 608,723 608,648 583,586 532,535 482,483 420,457 346,457 Z"/>
  </g>
  <g id="bullet-char-template-8211" transform="scale(0.00048828125,-0.00048828125)">
   <path d="M -4,459 L 1135,459 1135,606 -4,606 -4,459 Z"/>
  </g>
  <g id="bullet-char-template-61548" transform="scale(0.00048828125,-0.00048828125)">
   <path d="M 173,740 C 173,903 231,1043 346,1159 462,1274 601,1332 765,1332 928,1332 1067,1274 1183,1159 1299,1043 1357,903 1357,740 1357,577 1299,437 1183,322 1067,206 928,148 765,148 601,148 462,206 346,322 231,437 173,577 173,740 Z"/>
  </g>
 </defs>
 <g>
  <g id="id2" class="Master_Slide">
   <g id="bg-id2" class="Background"/>
   <g id="bo-id2" class="BackgroundObjects"/>
  </g>
 </g>
 <g class="SlideGroup">
  <g>
   <g id="container-id1">
    <g id="id1" class="Slide" clip-path="url(#presentation_clip_path)">
     <g class="Page">
      <g class="Group">
       <g class="com.sun.star.drawing.ClosedBezierShape">
        <g id="id3">
         <rect class="BoundingBox" stroke="none" fill="none" x="1117" y="3761" width="3884" height="5112"/>
         <path fill="rgb(255,255,255)" stroke="none" d="M 3058,8872 C 2454,8872 1979,8643 1634,8186 1290,7728 1117,7106 1117,6318 L 1117,6312 C 1117,5524 1290,4902 1634,4446 1979,3990 2454,3761 3058,3761 3661,3761 4135,3990 4480,4446 4826,4902 4999,5524 4999,6312 L 4999,6318 C 4999,7106 4826,7728 4480,8186 4135,8643 3661,8872 3058,8872 Z M 3058,8150 C 3389,8150 3647,7988 3832,7664 4017,7340 4109,6891 4109,6318 L 4109,6312 C 4109,5741 4017,5294 3832,4971 3647,4649 3389,4487 3058,4487 2725,4487 2467,4648 2283,4970 2099,5292 2007,5739 2007,6312 L 2007,6318 C 2007,6891 2099,7340 2283,7664 2467,7988 2725,8150 3058,8150 Z "/>
        </g>
       </g>
       <g class="com.sun.star.drawing.ClosedBezierShape">
        <g id="id4">
         <rect class="BoundingBox" stroke="none" fill="none" x="7011" y="3847" width="2165" height="4941"/>
         <path fill="rgb(255,255,255)" stroke="none" d="M 8308,8786 C 8308,7421 8308,6055 8308,4689 8302,4689 8295,4689 8288,4689 7862,4981 7437,5273 7011,5565 7011,5295 7011,5025 7011,4754 7441,4452 7871,4149 8302,3847 8592,3847 8883,3847 9174,3847 9174,5493 9174,7140 9174,8786 8886,8786 8597,8786 8308,8786 Z "/>
        </g>
       </g>
       <g class="com.sun.star.drawing.ClosedBezierShape">
        <g id="id5">
         <rect class="BoundingBox" stroke="none" fill="none" x="11686" y="3847" width="2165" height="4941"/>
         <path fill="rgb(255,255,255)" stroke="none" d="M 12984,8786 C 12984,7421 12984,6055 12984,4689 12977,4689 12970,4689 12963,4689 12537,4981 12112,5273 11686,5565 11686,5295 11686,5025 11686,4754 12116,4452 12547,4149 12977,3847 13268,3847 13559,3847 13850,3847 13850,5493 13850,7140 13850,8786 13561,8786 13272,8786 12984,8786 Z "/>
        </g>
       </g>
       <g class="com.sun.star.drawing.ClosedBezierShape">
        <g id="id6">
         <rect class="BoundingBox" stroke="none" fill="none" x="16364" y="3761" width="3521" height="5027"/>
         <path fill="rgb(255,255,255)" stroke="none" d="M 16413,8786 L 16413,8184 18159,6483 C 18476,6172 18686,5933 18790,5766 18894,5598 18946,5420 18946,5233 L 18946,5226 C 18944,5005 18867,4824 18716,4682 18566,4541 18372,4470 18135,4470 17863,4470 17639,4550 17464,4711 17288,4872 17198,5072 17193,5312 L 17193,5336 16365,5336 16365,5312 C 16365,4863 16533,4492 16868,4200 17204,3908 17623,3761 18128,3761 18621,3761 19024,3895 19338,4162 19651,4429 19808,4767 19808,5175 L 19808,5182 C 19808,5467 19729,5734 19570,5983 19412,6232 19111,6568 18669,6993 L 17580,8026 17580,8064 19884,8064 19884,8786 16413,8786 Z "/>
        </g>
       </g>
       <g class="com.sun.star.drawing.ClosedBezierShape">
        <g id="id7">
         <rect class="BoundingBox" stroke="none" fill="none" x="2869" y="12129" width="3709" height="5112"/>
         <path fill="rgb(255,255,255)" stroke="none" d="M 4731,17240 C 4195,17240 3760,17110 3425,16849 3091,16589 2907,16249 2873,15829 L 2869,15788 3715,15788 3718,15826 C 3743,16029 3846,16195 4028,16324 4209,16453 4443,16517 4728,16517 5013,16517 5243,16447 5418,16305 5592,16164 5679,15980 5679,15754 L 5679,15747 C 5679,15489 5590,15290 5411,15150 5232,15010 4983,14939 4666,14939 L 4081,14939 4081,14282 4646,14282 C 4915,14282 5133,14213 5301,14075 5469,13937 5553,13760 5553,13543 L 5553,13536 C 5553,13312 5480,13139 5335,13016 5191,12893 4986,12831 4721,12831 4461,12831 4248,12894 4083,13019 3917,13145 3823,13314 3800,13526 L 3797,13560 2975,13560 2979,13519 C 3015,13099 3191,12763 3506,12509 3821,12256 4226,12129 4721,12129 5228,12129 5634,12248 5941,12485 6248,12723 6402,13034 6402,13420 L 6402,13427 C 6402,13723 6306,13972 6114,14173 5922,14374 5673,14506 5365,14570 L 5365,14587 C 5734,14621 6029,14743 6248,14951 6467,15160 6576,15434 6576,15771 L 6576,15778 C 6576,16209 6405,16561 6063,16832 5721,17104 5277,17240 4731,17240 Z "/>
        </g>
       </g>
       <g class="com.sun.star.drawing.ClosedBezierShape">
        <g id="id8">
         <rect class="BoundingBox" stroke="none" fill="none" x="8704" y="12214" width="3651" height="5027"/>
         <path fill="rgb(255,255,255)" stroke="none" d="M 10498,17240 C 9992,17240 9575,17105 9247,16836 8920,16567 8740,16224 8708,15809 L 8705,15764 9533,15764 9536,15788 C 9573,16001 9680,16176 9856,16314 10033,16452 10250,16521 10505,16521 10800,16521 11039,16430 11224,16247 11409,16064 11501,15828 11501,15539 L 11501,15532 C 11501,15249 11408,15017 11222,14835 11036,14654 10798,14563 10509,14563 10228,14563 9991,14644 9797,14806 9698,14886 9621,14979 9564,15087 L 8794,15087 9030,12215 12063,12215 12063,12937 9735,12937 9598,14426 9615,14426 C 9722,14259 9874,14130 10070,14038 10267,13945 10488,13899 10734,13899 11205,13899 11592,14051 11897,14356 12201,14661 12353,15048 12353,15518 L 12353,15525 C 12353,16031 12181,16444 11837,16762 11492,17081 11046,17240 10498,17240 Z "/>
        </g>
       </g>
       <g class="com.sun.star.drawing.ClosedBezierShape">
        <g id="id9">
         <rect class="BoundingBox" stroke="none" fill="none" x="14283" y="12129" width="3839" height="5112"/>
         <path fill="rgb(255,255,255)" stroke="none" d="M 16200,17240 C 15637,17240 15176,17107 14819,16841 14462,16575 14283,16231 14283,15809 L 14283,15802 C 14283,15492 14386,15224 14590,14998 14794,14772 15062,14625 15392,14556 L 15392,14536 C 15110,14460 14884,14325 14715,14130 14546,13935 14461,13707 14461,13447 L 14461,13440 C 14461,13061 14625,12748 14951,12501 15277,12253 15694,12129 16200,12129 16709,12129 17126,12253 17451,12501 17777,12748 17939,13061 17939,13440 L 17939,13447 C 17939,13707 17855,13935 17686,14130 17517,14325 17291,14460 17008,14536 L 17008,14556 C 17339,14625 17607,14772 17812,14998 18018,15224 18121,15492 18121,15802 L 18121,15809 C 18121,16229 17942,16572 17585,16839 17228,17106 16766,17240 16200,17240 Z M 15576,14053 C 15736,14188 15945,14255 16200,14255 16456,14255 16664,14188 16825,14053 16986,13918 17066,13744 17066,13529 L 17066,13522 C 17066,13308 16986,13133 16825,12999 16664,12864 16456,12797 16200,12797 15945,12797 15736,12864 15576,12999 15415,13133 15334,13308 15334,13522 L 15334,13529 C 15334,13744 15415,13918 15576,14053 Z M 16200,16565 C 16497,16565 16739,16489 16928,16338 17116,16186 17210,15991 17210,15754 L 17210,15747 C 17210,15508 17116,15311 16928,15159 16739,15006 16497,14929 16200,14929 15904,14929 15661,15006 15473,15159 15285,15311 15191,15508 15191,15747 L 15191,15754 C 15191,15991 15285,16186 15475,16338 15664,16489 15906,16565 16200,16565 Z "/>
        </g>
       </g>
      </g>
     </g>
    </g>
   </g>
  </g>
 </g>
</svg>